# xmcd
#
# Track frame offsets:
#	150
#	13948
#	32166
#	50016
#	68166
#	84741
#	98766
#	113316
#	135066
#	155616
#	173766
#	195884
#	213455
#	231605
#	248855
#	266705
#	286655
#	300230
#
# Disc length: 4215 seconds
#
# Revision: 1
# Processed by: cddbd v1.5.2PL0 Copyright (c) Steve Scherf et al.
# Submitted via: audiograbber 1.83.01
#
DISCID=eb107512
DTITLE=disc 506 - Karaoke kurrents
DYEAR=2010
DGENRE=country
TTITLE0=craig morgan - bonfire
TTITLE1=david nail - red light
TTITLE2=kellie pickler - best days of your life
TTITLE3=darius rucker - alright
TTITLE4=blake shelton/trace adkins - hillbilly bone
TTITLE5=steel magnolias - keep on loving you
TTITLE6=george strait - i gotta get to you
TTITLE7=sugarland - stay
TTITLE8=taylor swift - change
TTITLE9=taylor swift - fearless
TTITLE10=taylor swift - fifteen
TTITLE11=taylor swift - love story
TTITLE12=taylor swift - today was a fairy tale
TTITLE13=taylor swift - you belong to me
TTITLE14=carrie underwood - cowboy cassanova
TTITLE15=carrie underwood - temporary home
TTITLE16=carrie underwood - undo it
TTITLE17=chris young - gettin' you home
EXTD=
EXTT0=
EXTT1=
EXTT2=
EXTT3=
EXTT4=
EXTT5=
EXTT6=
EXTT7=
EXTT8=
EXTT9=
EXTT10=
EXTT11=
EXTT12=
EXTT13=
EXTT14=
EXTT15=
EXTT16=
EXTT17=
PLAYORDER=
